<svg id="visual" viewBox="0 0 24 24" width="24" height="24" xmlns="http://www.w3.org/2000/svg" xmlns:xlink="http://www.w3.org/1999/xlink" version="1.1"><g transform="translate(10.523609634412097 13.778093391959688)"><path d="M6.5 -11.5C8.4 -10.2 9.8 -8.4 9.8 -6.4C9.8 -4.3 8.4 -2.2 9.1 0.4C9.9 3 12.7 6 12.6 7.7C12.4 9.5 9.2 9.9 6.6 8.4C4 6.9 2 3.5 0.5 2.6C-1 1.7 -2 3.5 -3.4 4.3C-4.9 5.1 -6.8 5.1 -8.1 4.2C-9.4 3.3 -10.2 1.7 -9.2 0.6C-8.2 -0.5 -5.4 -1 -4.1 -2C-2.9 -3 -3.2 -4.5 -2.8 -6.6C-2.3 -8.7 -1.2 -11.4 0.6 -12.4C2.3 -13.4 4.7 -12.7 6.5 -11.5" fill="#ffffff"></path></g></svg>